<mxfile host="65bd71144e">
    <diagram id="QR7wHQUq4zXBtFgrkhOO" name="Page-1">
        <mxGraphModel dx="1154" dy="914" grid="1" gridSize="10" guides="1" tooltips="1" connect="1" arrows="1" fold="1" page="1" pageScale="1" pageWidth="850" pageHeight="1100" math="0" shadow="0">
            <root>
                <mxCell id="0"/>
                <mxCell id="1" parent="0"/>
                <mxCell id="92" value="" style="rounded=0;whiteSpace=wrap;html=1;fillColor=none;dashed=1;" parent="1" vertex="1">
                    <mxGeometry x="480" y="880" width="290" height="250" as="geometry"/>
                </mxCell>
                <mxCell id="47" value="" style="rounded=0;whiteSpace=wrap;html=1;fillColor=none;dashed=1;" parent="1" vertex="1">
                    <mxGeometry x="400" y="50" width="280" height="310" as="geometry"/>
                </mxCell>
                <mxCell id="16" style="edgeStyle=none;html=1;entryX=0;entryY=0.5;entryDx=0;entryDy=0;exitX=1;exitY=0.5;exitDx=0;exitDy=0;" parent="1" source="2" target="3" edge="1">
                    <mxGeometry relative="1" as="geometry"/>
                </mxCell>
                <mxCell id="2" value="SLEEPS" style="ellipse;whiteSpace=wrap;html=1;aspect=fixed;" parent="1" vertex="1">
                    <mxGeometry x="40" y="200" width="80" height="80" as="geometry"/>
                </mxCell>
                <mxCell id="149" style="edgeStyle=none;html=1;exitX=1;exitY=0.5;exitDx=0;exitDy=0;entryX=0;entryY=0.5;entryDx=0;entryDy=0;" parent="1" source="3" target="29" edge="1">
                    <mxGeometry relative="1" as="geometry"/>
                </mxCell>
                <mxCell id="3" value="WAKES UP" style="ellipse;whiteSpace=wrap;html=1;aspect=fixed;" parent="1" vertex="1">
                    <mxGeometry x="235" y="200" width="80" height="80" as="geometry"/>
                </mxCell>
                <mxCell id="40" style="edgeStyle=none;html=1;exitX=0.015;exitY=0.644;exitDx=0;exitDy=0;entryX=0.778;entryY=0.083;entryDx=0;entryDy=0;exitPerimeter=0;entryPerimeter=0;" parent="1" source="10" target="29" edge="1">
                    <mxGeometry relative="1" as="geometry">
                        <mxPoint x="575.3199999999999" y="116.68000000000006" as="sourcePoint"/>
                    </mxGeometry>
                </mxCell>
                <mxCell id="41" style="edgeStyle=none;html=1;exitX=0.011;exitY=0.629;exitDx=0;exitDy=0;entryX=0.967;entryY=0.359;entryDx=0;entryDy=0;entryPerimeter=0;exitPerimeter=0;" parent="1" source="8" target="29" edge="1">
                    <mxGeometry relative="1" as="geometry"/>
                </mxCell>
                <mxCell id="8" value="READS" style="ellipse;whiteSpace=wrap;html=1;aspect=fixed;" parent="1" vertex="1">
                    <mxGeometry x="575" y="155" width="80" height="80" as="geometry"/>
                </mxCell>
                <mxCell id="9" value="WORKS" style="ellipse;whiteSpace=wrap;html=1;aspect=fixed;" parent="1" vertex="1">
                    <mxGeometry x="575" y="255" width="80" height="80" as="geometry"/>
                </mxCell>
                <mxCell id="42" style="edgeStyle=none;html=1;entryX=0.954;entryY=0.796;entryDx=0;entryDy=0;entryPerimeter=0;exitX=0;exitY=0.5;exitDx=0;exitDy=0;" parent="1" source="9" target="29" edge="1">
                    <mxGeometry relative="1" as="geometry">
                        <mxPoint x="560" y="290" as="sourcePoint"/>
                    </mxGeometry>
                </mxCell>
                <mxCell id="10" value="DOES&lt;br&gt;HOBBY" style="ellipse;whiteSpace=wrap;html=1;aspect=fixed;" parent="1" vertex="1">
                    <mxGeometry x="575" y="70" width="80" height="80" as="geometry"/>
                </mxCell>
                <mxCell id="52" style="edgeStyle=none;html=1;exitX=1;exitY=0.5;exitDx=0;exitDy=0;entryX=0;entryY=0.5;entryDx=0;entryDy=0;" parent="1" source="11" target="12" edge="1">
                    <mxGeometry relative="1" as="geometry"/>
                </mxCell>
                <mxCell id="11" value="PREPARES&lt;br&gt;FOOD" style="ellipse;whiteSpace=wrap;html=1;aspect=fixed;" parent="1" vertex="1">
                    <mxGeometry x="80" y="480" width="80" height="80" as="geometry"/>
                </mxCell>
                <mxCell id="55" style="edgeStyle=none;html=1;exitX=1;exitY=0.5;exitDx=0;exitDy=0;entryX=0;entryY=0.5;entryDx=0;entryDy=0;" parent="1" source="12" target="53" edge="1">
                    <mxGeometry relative="1" as="geometry"/>
                </mxCell>
                <mxCell id="12" value="EATS" style="ellipse;whiteSpace=wrap;html=1;aspect=fixed;" parent="1" vertex="1">
                    <mxGeometry x="310" y="480" width="80" height="80" as="geometry"/>
                </mxCell>
                <mxCell id="22" value="Od: 23:00 &amp;gt;= t || t &amp;lt; 8:00&lt;br&gt;&lt;div style=&quot;&quot;&gt;&lt;span style=&quot;background-color: initial;&quot;&gt;Do:&amp;nbsp; &amp;nbsp;8:00 &amp;lt;= t &amp;lt;= 9:30&lt;/span&gt;&lt;/div&gt;" style="text;html=1;align=left;verticalAlign=middle;resizable=0;points=[];autosize=1;strokeColor=none;fillColor=none;fontSize=16;" parent="1" vertex="1">
                    <mxGeometry y="280" width="200" height="50" as="geometry"/>
                </mxCell>
                <mxCell id="23" value="Od: 8:00 &amp;lt;= t &amp;lt; 11:00" style="text;html=1;align=left;verticalAlign=middle;resizable=0;points=[];autosize=1;strokeColor=none;fillColor=none;fontSize=16;" parent="1" vertex="1">
                    <mxGeometry x="210" y="280" width="170" height="30" as="geometry"/>
                </mxCell>
                <mxCell id="32" style="edgeStyle=none;html=1;exitX=0.667;exitY=0.046;exitDx=0;exitDy=0;entryX=0;entryY=0.5;entryDx=0;entryDy=0;exitPerimeter=0;" parent="1" source="29" target="10" edge="1">
                    <mxGeometry relative="1" as="geometry">
                        <mxPoint x="575" y="105" as="targetPoint"/>
                    </mxGeometry>
                </mxCell>
                <mxCell id="36" value="45%" style="edgeLabel;html=1;align=center;verticalAlign=middle;resizable=0;points=[];labelBackgroundColor=none;fontSize=16;" parent="32" vertex="1" connectable="0">
                    <mxGeometry x="-0.1862" y="-1" relative="1" as="geometry">
                        <mxPoint x="-2" y="-26" as="offset"/>
                    </mxGeometry>
                </mxCell>
                <mxCell id="33" style="edgeStyle=none;html=1;exitX=0.954;exitY=0.271;exitDx=0;exitDy=0;entryX=0;entryY=0.5;entryDx=0;entryDy=0;exitPerimeter=0;" parent="1" source="29" target="8" edge="1">
                    <mxGeometry relative="1" as="geometry"/>
                </mxCell>
                <mxCell id="37" value="35%" style="edgeLabel;html=1;align=center;verticalAlign=middle;resizable=0;points=[];labelBackgroundColor=none;fontSize=16;" parent="33" vertex="1" connectable="0">
                    <mxGeometry x="-0.473" y="-2" relative="1" as="geometry">
                        <mxPoint x="26" y="-26" as="offset"/>
                    </mxGeometry>
                </mxCell>
                <mxCell id="34" style="edgeStyle=none;html=1;exitX=0.954;exitY=0.696;exitDx=0;exitDy=0;exitPerimeter=0;entryX=0.015;entryY=0.39;entryDx=0;entryDy=0;entryPerimeter=0;" parent="1" source="29" target="9" edge="1">
                    <mxGeometry relative="1" as="geometry">
                        <mxPoint x="570" y="280" as="targetPoint"/>
                    </mxGeometry>
                </mxCell>
                <mxCell id="38" value="25%" style="edgeLabel;html=1;align=center;verticalAlign=middle;resizable=0;points=[];labelBackgroundColor=none;fontSize=16;" parent="34" vertex="1" connectable="0">
                    <mxGeometry x="-0.2399" relative="1" as="geometry">
                        <mxPoint x="16" y="-12" as="offset"/>
                    </mxGeometry>
                </mxCell>
                <mxCell id="46" style="edgeStyle=none;html=1;exitX=1;exitY=0.5;exitDx=0;exitDy=0;entryX=0;entryY=0.5;entryDx=0;entryDy=0;" parent="1" source="29" target="11" edge="1">
                    <mxGeometry relative="1" as="geometry">
                        <mxPoint x="535" y="560" as="targetPoint"/>
                        <Array as="points">
                            <mxPoint x="720" y="240"/>
                            <mxPoint x="720" y="440"/>
                            <mxPoint x="40" y="440"/>
                            <mxPoint x="40" y="520"/>
                        </Array>
                    </mxGeometry>
                </mxCell>
                <mxCell id="29" value="" style="ellipse;whiteSpace=wrap;html=1;aspect=fixed;" parent="1" vertex="1">
                    <mxGeometry x="415" y="200" width="80" height="80" as="geometry"/>
                </mxCell>
                <mxCell id="48" value="Od: 8:00 &amp;lt;= t &amp;lt;&amp;nbsp; &amp;nbsp;11:00&lt;br&gt;Do:&amp;nbsp; &amp;nbsp; &amp;nbsp; &amp;nbsp; &amp;nbsp; &amp;nbsp; &amp;nbsp; t &amp;lt;= 12:00" style="text;html=1;align=left;verticalAlign=middle;resizable=0;points=[];autosize=1;strokeColor=none;fillColor=none;fontSize=16;" parent="1" vertex="1">
                    <mxGeometry x="450" y="370" width="180" height="50" as="geometry"/>
                </mxCell>
                <mxCell id="49" value="Od: 11:00 &amp;lt;= t &amp;lt;&amp;nbsp; &amp;nbsp;13:00&lt;br&gt;Do: 13:00 &amp;lt;= t &amp;lt;= 13:30" style="text;html=1;align=left;verticalAlign=middle;resizable=0;points=[];autosize=1;strokeColor=none;fillColor=none;fontSize=16;" parent="1" vertex="1">
                    <mxGeometry x="50" y="570" width="190" height="50" as="geometry"/>
                </mxCell>
                <mxCell id="51" value="Od: 13:00 &amp;lt;= t &amp;lt; 15:00" style="text;html=1;align=left;verticalAlign=middle;resizable=0;points=[];autosize=1;strokeColor=none;fillColor=none;fontSize=16;" parent="1" vertex="1">
                    <mxGeometry x="260" y="570" width="180" height="30" as="geometry"/>
                </mxCell>
                <mxCell id="71" style="edgeStyle=none;html=1;exitX=1;exitY=0.5;exitDx=0;exitDy=0;entryX=0;entryY=0.5;entryDx=0;entryDy=0;" parent="1" source="53" target="69" edge="1">
                    <mxGeometry relative="1" as="geometry">
                        <Array as="points">
                            <mxPoint x="680" y="520"/>
                            <mxPoint x="680" y="640"/>
                            <mxPoint x="40" y="640"/>
                            <mxPoint x="40" y="1000"/>
                        </Array>
                    </mxGeometry>
                </mxCell>
                <mxCell id="53" value="RELAXES" style="ellipse;whiteSpace=wrap;html=1;aspect=fixed;" parent="1" vertex="1">
                    <mxGeometry x="520" y="480" width="80" height="80" as="geometry"/>
                </mxCell>
                <mxCell id="54" value="Od: 13:00 &amp;lt;= t &amp;lt;&amp;nbsp; &amp;nbsp;15:00&lt;br&gt;Do: 15:00 &amp;lt;= t &amp;lt;= 15:20" style="text;html=1;align=left;verticalAlign=middle;resizable=0;points=[];autosize=1;strokeColor=none;fillColor=none;fontSize=16;" parent="1" vertex="1">
                    <mxGeometry x="465" y="560" width="190" height="50" as="geometry"/>
                </mxCell>
                <mxCell id="56" value="" style="rounded=0;whiteSpace=wrap;html=1;fillColor=none;dashed=1;" parent="1" vertex="1">
                    <mxGeometry x="62.5" y="660" width="395" height="530" as="geometry"/>
                </mxCell>
                <mxCell id="57" style="edgeStyle=none;html=1;exitX=0.015;exitY=0.644;exitDx=0;exitDy=0;entryX=1;entryY=0;entryDx=0;entryDy=0;exitPerimeter=0;" parent="1" source="62" target="69" edge="1">
                    <mxGeometry relative="1" as="geometry">
                        <mxPoint x="237.81999999999994" y="876.6800000000001" as="sourcePoint"/>
                    </mxGeometry>
                </mxCell>
                <mxCell id="58" style="edgeStyle=none;html=1;exitX=-0.008;exitY=0.634;exitDx=0;exitDy=0;entryX=0.944;entryY=0.732;entryDx=0;entryDy=0;entryPerimeter=0;exitPerimeter=0;" parent="1" source="59" target="69" edge="1">
                    <mxGeometry relative="1" as="geometry"/>
                </mxCell>
                <mxCell id="59" value="WORKS" style="ellipse;whiteSpace=wrap;html=1;aspect=fixed;" parent="1" vertex="1">
                    <mxGeometry x="237.5" y="1010" width="80" height="80" as="geometry"/>
                </mxCell>
                <mxCell id="60" value="READS" style="ellipse;whiteSpace=wrap;html=1;aspect=fixed;" parent="1" vertex="1">
                    <mxGeometry x="237.5" y="1100" width="80" height="80" as="geometry"/>
                </mxCell>
                <mxCell id="61" style="edgeStyle=none;html=1;entryX=0.806;entryY=0.932;entryDx=0;entryDy=0;entryPerimeter=0;exitX=0;exitY=0.5;exitDx=0;exitDy=0;" parent="1" source="60" target="69" edge="1">
                    <mxGeometry relative="1" as="geometry">
                        <mxPoint x="222.5" y="1050" as="sourcePoint"/>
                    </mxGeometry>
                </mxCell>
                <mxCell id="62" value="DOES&lt;br&gt;HOBBY" style="ellipse;whiteSpace=wrap;html=1;aspect=fixed;" parent="1" vertex="1">
                    <mxGeometry x="237.5" y="900" width="80" height="80" as="geometry"/>
                </mxCell>
                <mxCell id="63" style="edgeStyle=none;html=1;exitX=0.781;exitY=0.069;exitDx=0;exitDy=0;entryX=0;entryY=0.5;entryDx=0;entryDy=0;exitPerimeter=0;" parent="1" source="69" target="62" edge="1">
                    <mxGeometry relative="1" as="geometry">
                        <mxPoint x="237.5" y="865" as="targetPoint"/>
                    </mxGeometry>
                </mxCell>
                <mxCell id="64" value="40%" style="edgeLabel;html=1;align=center;verticalAlign=middle;resizable=0;points=[];labelBackgroundColor=none;fontSize=16;" parent="63" vertex="1" connectable="0">
                    <mxGeometry x="-0.1862" y="-1" relative="1" as="geometry">
                        <mxPoint x="30" y="-26" as="offset"/>
                    </mxGeometry>
                </mxCell>
                <mxCell id="65" style="edgeStyle=none;html=1;exitX=0.981;exitY=0.644;exitDx=0;exitDy=0;entryX=0;entryY=0.5;entryDx=0;entryDy=0;exitPerimeter=0;" parent="1" source="69" target="59" edge="1">
                    <mxGeometry relative="1" as="geometry"/>
                </mxCell>
                <mxCell id="66" value="25%" style="edgeLabel;html=1;align=center;verticalAlign=middle;resizable=0;points=[];labelBackgroundColor=none;fontSize=16;" parent="65" vertex="1" connectable="0">
                    <mxGeometry x="-0.473" y="-2" relative="1" as="geometry">
                        <mxPoint x="34" y="-3" as="offset"/>
                    </mxGeometry>
                </mxCell>
                <mxCell id="67" style="edgeStyle=none;html=1;exitX=1;exitY=1;exitDx=0;exitDy=0;entryX=0.015;entryY=0.39;entryDx=0;entryDy=0;entryPerimeter=0;" parent="1" source="69" target="60" edge="1">
                    <mxGeometry relative="1" as="geometry">
                        <mxPoint x="232.5" y="1040" as="targetPoint"/>
                    </mxGeometry>
                </mxCell>
                <mxCell id="68" value="20%" style="edgeLabel;html=1;align=center;verticalAlign=middle;resizable=0;points=[];labelBackgroundColor=none;fontSize=16;" parent="67" vertex="1" connectable="0">
                    <mxGeometry x="-0.2399" relative="1" as="geometry">
                        <mxPoint x="29" y="3" as="offset"/>
                    </mxGeometry>
                </mxCell>
                <mxCell id="73" style="edgeStyle=none;html=1;exitX=0.694;exitY=0.019;exitDx=0;exitDy=0;entryX=0;entryY=1;entryDx=0;entryDy=0;exitPerimeter=0;" parent="1" source="69" target="72" edge="1">
                    <mxGeometry relative="1" as="geometry"/>
                </mxCell>
                <mxCell id="74" value="15%" style="edgeLabel;html=1;align=center;verticalAlign=middle;resizable=0;points=[];labelBackgroundColor=none;fontSize=16;" parent="73" vertex="1" connectable="0">
                    <mxGeometry x="0.2747" y="-3" relative="1" as="geometry">
                        <mxPoint x="-31" y="-5" as="offset"/>
                    </mxGeometry>
                </mxCell>
                <mxCell id="81" style="edgeStyle=none;html=1;exitX=1;exitY=0.5;exitDx=0;exitDy=0;entryX=0;entryY=0.5;entryDx=0;entryDy=0;" parent="1" source="69" target="82" edge="1">
                    <mxGeometry relative="1" as="geometry">
                        <mxPoint x="1810" y="510.1428571428571" as="targetPoint"/>
                    </mxGeometry>
                </mxCell>
                <mxCell id="69" value="" style="ellipse;whiteSpace=wrap;html=1;aspect=fixed;" parent="1" vertex="1">
                    <mxGeometry x="77.5" y="960" width="80" height="80" as="geometry"/>
                </mxCell>
                <mxCell id="70" value="Od: 15:00 &amp;lt;= t &amp;lt;&amp;nbsp; &amp;nbsp;19:00&lt;br&gt;Do: 19:00 &amp;lt;= t &amp;lt;= 19:59" style="text;html=1;align=left;verticalAlign=middle;resizable=0;points=[];autosize=1;strokeColor=none;fillColor=none;fontSize=16;" parent="1" vertex="1">
                    <mxGeometry x="177.5" y="1200" width="190" height="50" as="geometry"/>
                </mxCell>
                <mxCell id="78" style="edgeStyle=none;html=1;exitX=1;exitY=0.5;exitDx=0;exitDy=0;entryX=0.5;entryY=1;entryDx=0;entryDy=0;" parent="1" source="72" target="76" edge="1">
                    <mxGeometry relative="1" as="geometry">
                        <Array as="points">
                            <mxPoint x="382.5" y="840"/>
                        </Array>
                    </mxGeometry>
                </mxCell>
                <mxCell id="72" value="PREPARES&lt;br&gt;TO&lt;br&gt;LEAVE" style="ellipse;whiteSpace=wrap;html=1;aspect=fixed;" parent="1" vertex="1">
                    <mxGeometry x="237.5" y="800" width="80" height="80" as="geometry"/>
                </mxCell>
                <mxCell id="79" style="edgeStyle=none;html=1;exitX=0;exitY=0.5;exitDx=0;exitDy=0;entryX=1;entryY=0.5;entryDx=0;entryDy=0;" parent="1" source="76" target="77" edge="1">
                    <mxGeometry relative="1" as="geometry"/>
                </mxCell>
                <mxCell id="76" value="LEFT" style="ellipse;whiteSpace=wrap;html=1;aspect=fixed;" parent="1" vertex="1">
                    <mxGeometry x="342.5" y="700" width="80" height="80" as="geometry"/>
                </mxCell>
                <mxCell id="80" style="edgeStyle=none;html=1;exitX=0;exitY=0.5;exitDx=0;exitDy=0;entryX=0.5;entryY=0;entryDx=0;entryDy=0;" parent="1" source="77" target="69" edge="1">
                    <mxGeometry relative="1" as="geometry">
                        <Array as="points">
                            <mxPoint x="117.5" y="740"/>
                        </Array>
                    </mxGeometry>
                </mxCell>
                <mxCell id="77" value="ARRIVES" style="ellipse;whiteSpace=wrap;html=1;aspect=fixed;" parent="1" vertex="1">
                    <mxGeometry x="137.5" y="700" width="80" height="80" as="geometry"/>
                </mxCell>
                <mxCell id="84" style="edgeStyle=none;html=1;exitX=1;exitY=0;exitDx=0;exitDy=0;entryX=0;entryY=0.5;entryDx=0;entryDy=0;" parent="1" source="82" target="83" edge="1">
                    <mxGeometry relative="1" as="geometry"/>
                </mxCell>
                <mxCell id="86" value="70%" style="edgeLabel;html=1;align=center;verticalAlign=middle;resizable=0;points=[];labelBackgroundColor=none;fontSize=16;" parent="84" vertex="1" connectable="0">
                    <mxGeometry x="0.2396" y="2" relative="1" as="geometry">
                        <mxPoint x="-12" y="-10" as="offset"/>
                    </mxGeometry>
                </mxCell>
                <mxCell id="88" style="edgeStyle=none;html=1;exitX=0.924;exitY=0.796;exitDx=0;exitDy=0;entryX=0.001;entryY=0.419;entryDx=0;entryDy=0;entryPerimeter=0;exitPerimeter=0;" parent="1" source="82" target="87" edge="1">
                    <mxGeometry relative="1" as="geometry"/>
                </mxCell>
                <mxCell id="91" value="30%" style="edgeLabel;html=1;align=center;verticalAlign=middle;resizable=0;points=[];labelBackgroundColor=none;fontSize=16;" parent="88" vertex="1" connectable="0">
                    <mxGeometry x="0.2603" relative="1" as="geometry">
                        <mxPoint x="-5" y="-22" as="offset"/>
                    </mxGeometry>
                </mxCell>
                <mxCell id="94" style="edgeStyle=none;html=1;entryX=0;entryY=0.5;entryDx=0;entryDy=0;" parent="1" source="82" target="95" edge="1">
                    <mxGeometry relative="1" as="geometry">
                        <mxPoint x="850" y="1000" as="targetPoint"/>
                        <Array as="points">
                            <mxPoint x="800" y="1000"/>
                            <mxPoint x="800" y="1260"/>
                            <mxPoint x="40" y="1260"/>
                            <mxPoint x="40" y="1320"/>
                        </Array>
                    </mxGeometry>
                </mxCell>
                <mxCell id="82" value="" style="ellipse;whiteSpace=wrap;html=1;aspect=fixed;" parent="1" vertex="1">
                    <mxGeometry x="520" y="960" width="80" height="80" as="geometry"/>
                </mxCell>
                <mxCell id="83" value="WORKS" style="ellipse;whiteSpace=wrap;html=1;aspect=fixed;" parent="1" vertex="1">
                    <mxGeometry x="660" y="900" width="80" height="80" as="geometry"/>
                </mxCell>
                <mxCell id="85" style="edgeStyle=none;html=1;exitX=0.008;exitY=0.603;exitDx=0;exitDy=0;entryX=0.931;entryY=0.22;entryDx=0;entryDy=0;entryPerimeter=0;exitPerimeter=0;" parent="1" source="83" target="82" edge="1">
                    <mxGeometry relative="1" as="geometry"/>
                </mxCell>
                <mxCell id="90" style="edgeStyle=none;html=1;exitX=0;exitY=0.5;exitDx=0;exitDy=0;entryX=1;entryY=1;entryDx=0;entryDy=0;" parent="1" source="87" target="82" edge="1">
                    <mxGeometry relative="1" as="geometry"/>
                </mxCell>
                <mxCell id="87" value="DOES HOBBY" style="ellipse;whiteSpace=wrap;html=1;aspect=fixed;" parent="1" vertex="1">
                    <mxGeometry x="660" y="1020" width="80" height="80" as="geometry"/>
                </mxCell>
                <mxCell id="93" value="Od: 19:00 &amp;lt;= t &amp;lt;&amp;nbsp; &amp;nbsp;20:00&lt;br&gt;Do: 20:05 &amp;lt;= t &amp;lt;= 21:20" style="text;html=1;align=left;verticalAlign=middle;resizable=0;points=[];autosize=1;strokeColor=none;fillColor=none;fontSize=16;" parent="1" vertex="1">
                    <mxGeometry x="530" y="1140" width="190" height="50" as="geometry"/>
                </mxCell>
                <mxCell id="97" style="edgeStyle=none;html=1;entryX=0;entryY=0.5;entryDx=0;entryDy=0;exitX=1;exitY=0.5;exitDx=0;exitDy=0;" parent="1" source="95" target="98" edge="1">
                    <mxGeometry relative="1" as="geometry">
                        <mxPoint x="2130" y="520.0000000000002" as="targetPoint"/>
                    </mxGeometry>
                </mxCell>
                <mxCell id="95" value="READS" style="ellipse;whiteSpace=wrap;html=1;aspect=fixed;" parent="1" vertex="1">
                    <mxGeometry x="75" y="1280" width="80" height="80" as="geometry"/>
                </mxCell>
                <mxCell id="96" value="Od: 20:00 &amp;lt;= t &amp;lt;&amp;nbsp; &amp;nbsp;21:00&lt;br&gt;Do:&amp;nbsp; &amp;nbsp; &amp;nbsp; &amp;nbsp; &amp;nbsp; &amp;nbsp; &amp;nbsp; &amp;nbsp; t &amp;lt;= 21:30" style="text;html=1;align=left;verticalAlign=middle;resizable=0;points=[];autosize=1;strokeColor=none;fillColor=none;fontSize=16;" parent="1" vertex="1">
                    <mxGeometry x="30" y="1370" width="190" height="50" as="geometry"/>
                </mxCell>
                <mxCell id="150" style="edgeStyle=none;html=1;exitX=1;exitY=0.5;exitDx=0;exitDy=0;entryX=0;entryY=0.5;entryDx=0;entryDy=0;" parent="1" source="98" target="100" edge="1">
                    <mxGeometry relative="1" as="geometry"/>
                </mxCell>
                <mxCell id="98" value="PREPARES FOOD" style="ellipse;whiteSpace=wrap;html=1;aspect=fixed;" parent="1" vertex="1">
                    <mxGeometry x="280" y="1280" width="80" height="80" as="geometry"/>
                </mxCell>
                <mxCell id="99" value="Od: 21:00 &amp;lt;= t &amp;lt;&amp;nbsp; &amp;nbsp;23:00&lt;br&gt;&lt;div&gt;&lt;br&gt;&lt;/div&gt;" style="text;html=1;align=left;verticalAlign=middle;resizable=0;points=[];autosize=1;strokeColor=none;fillColor=none;fontSize=16;" parent="1" vertex="1">
                    <mxGeometry x="232.5" y="1370" width="190" height="50" as="geometry"/>
                </mxCell>
                <mxCell id="151" style="edgeStyle=none;html=1;exitX=1;exitY=0.5;exitDx=0;exitDy=0;entryX=0;entryY=0.5;entryDx=0;entryDy=0;" parent="1" source="100" target="103" edge="1">
                    <mxGeometry relative="1" as="geometry"/>
                </mxCell>
                <mxCell id="100" value="EATS" style="ellipse;whiteSpace=wrap;html=1;aspect=fixed;" parent="1" vertex="1">
                    <mxGeometry x="480" y="1280" width="80" height="80" as="geometry"/>
                </mxCell>
                <mxCell id="102" value="Od: 21:00 &amp;lt;= t &amp;lt;&amp;nbsp; &amp;nbsp;23:00&lt;br&gt;&lt;div&gt;&lt;br&gt;&lt;/div&gt;" style="text;html=1;align=left;verticalAlign=middle;resizable=0;points=[];autosize=1;strokeColor=none;fillColor=none;fontSize=16;" parent="1" vertex="1">
                    <mxGeometry x="425" y="1370" width="190" height="50" as="geometry"/>
                </mxCell>
                <mxCell id="152" style="edgeStyle=none;html=1;exitX=1;exitY=0.5;exitDx=0;exitDy=0;entryX=0;entryY=0.5;entryDx=0;entryDy=0;" parent="1" source="103" target="2" edge="1">
                    <mxGeometry relative="1" as="geometry">
                        <Array as="points">
                            <mxPoint x="820" y="1320"/>
                            <mxPoint x="820" y="30"/>
                            <mxPoint x="10" y="30"/>
                            <mxPoint x="10" y="240"/>
                        </Array>
                    </mxGeometry>
                </mxCell>
                <mxCell id="103" value="RELAXES" style="ellipse;whiteSpace=wrap;html=1;aspect=fixed;" parent="1" vertex="1">
                    <mxGeometry x="680" y="1280" width="80" height="80" as="geometry"/>
                </mxCell>
                <mxCell id="105" value="Od: 21:00 &amp;lt;= t &amp;lt;&amp;nbsp; &amp;nbsp;23:00&lt;br&gt;&lt;div&gt;Do: 23:00 &amp;lt;= t &amp;lt;= 23:30&lt;/div&gt;" style="text;html=1;align=left;verticalAlign=middle;resizable=0;points=[];autosize=1;strokeColor=none;fillColor=none;fontSize=16;" parent="1" vertex="1">
                    <mxGeometry x="630" y="1360" width="190" height="50" as="geometry"/>
                </mxCell>
            </root>
        </mxGraphModel>
    </diagram>
</mxfile>